<svg width="25" height="25" viewBox="0 0 25 25" fill="none" xmlns="http://www.w3.org/2000/svg">
<circle cx="12.5" cy="12.5" r="8.5" fill="#BD0A0A"/>
<circle cx="12.5" cy="12.5" r="10.5" fill="#BD0A0A" fill-opacity="0.36"/>
<circle cx="12.5" cy="12.5" r="12.5" fill="#BD0A0A" fill-opacity="0.15"/>
<path d="M15.496 12.2737C15.4757 12.2002 15.4402 12.1318 15.3916 12.073C15.3431 12.0142 15.2827 11.9663 15.2144 11.9324L13.3781 11.0224L13.871 7.61532C13.8872 7.49724 13.864 7.37711 13.805 7.27355C13.746 7.16999 13.6545 7.08878 13.5447 7.0425C13.4349 6.99622 13.3128 6.98746 13.1975 7.01758C13.0822 7.04769 12.98 7.115 12.9069 7.20907L9.11519 12.0841C9.06372 12.1498 9.02815 12.2265 9.01123 12.3083C8.99432 12.39 8.99653 12.4746 9.01769 12.5553C9.0416 12.6361 9.08316 12.7106 9.13937 12.7733C9.19557 12.8361 9.26502 12.8856 9.34269 12.9182L11.6556 13.8445L11.1627 17.2137C11.1459 17.3346 11.1705 17.4576 11.2325 17.5628C11.2944 17.668 11.3901 17.7492 11.5039 17.7932C11.5674 17.8196 11.6357 17.8325 11.7044 17.8312C11.7936 17.8307 11.8813 17.8082 11.9597 17.7657C12.0382 17.7232 12.1049 17.6619 12.1539 17.5874L15.4039 12.7124C15.4497 12.6501 15.4816 12.5787 15.4975 12.503C15.5134 12.4273 15.5129 12.3491 15.496 12.2737Z" fill="white"/>
</svg>
