<svg width="45" height="21" viewBox="0 0 45 21" fill="none" xmlns="http://www.w3.org/2000/svg">
<rect width="45" height="21" rx="10.5" fill="url(#paint0_linear_147_120)"/>
<circle cx="11.5" cy="10.5" r="8.5" fill="url(#paint1_linear_147_120)"/>
<circle cx="33.5" cy="10.5" r="8.5" fill="url(#paint2_linear_147_120)"/>
<g clip-path="url(#clip0_147_120)">
<path d="M38.3 14.2284L37.1057 11.3451C36.7083 11.8853 36.1736 12.3184 35.5534 12.5927L34.4261 15.3142L34.6095 15.757C34.6579 15.8739 34.7596 15.9604 34.8827 15.9895C34.9127 15.9965 34.943 16 34.9732 16C35.0669 16 35.1587 15.9665 35.2311 15.9038L36.409 14.8822L37.9643 14.7717C38.0905 14.7627 38.2047 14.6936 38.2712 14.586C38.3377 14.4783 38.3484 14.3453 38.3 14.2284Z" fill="white"/>
<path d="M34.2824 12.9096C34.2532 12.9118 34.224 12.9137 34.1947 12.9151C34.1302 12.9184 34.0652 12.92 34 12.92C33.9348 12.92 33.8699 12.9184 33.8055 12.9151C32.6122 12.8556 31.5604 12.2505 30.8943 11.3451L29.7 14.2284C29.6516 14.3453 29.6623 14.4783 29.7288 14.586C29.7954 14.6936 29.9096 14.7627 30.0358 14.7717L31.5911 14.8822L32.769 15.9038C32.8413 15.9664 32.9331 16 33.0268 16H33.0269C33.057 16 33.0874 15.9965 33.1173 15.9895C33.2404 15.9604 33.3421 15.8739 33.3906 15.757L34.0001 14.2856L34.584 12.8758C34.4847 12.891 34.384 12.9023 34.2824 12.9096Z" fill="white"/>
<path d="M36.1683 6.89811C35.5891 6.31895 34.8191 6 34 6C32.3092 6.00008 30.9336 7.37566 30.9336 9.06639C30.9336 9.21471 30.9445 9.36057 30.9649 9.50332C30.9873 9.6599 31.0216 9.81272 31.0668 9.96078C31.1188 10.1309 31.1852 10.2949 31.2646 10.4511C31.7713 11.4481 32.8071 12.1328 34 12.1328C34.3333 12.1328 34.6542 12.0791 34.9549 11.9803C34.9939 11.9675 35.0326 11.954 35.071 11.9396C35.1989 11.8918 35.3228 11.8357 35.442 11.7719C35.58 11.698 35.7117 11.6141 35.8361 11.5208C36.2119 11.2389 36.5211 10.873 36.7355 10.4511C36.947 10.0349 37.0664 9.56436 37.0664 9.06639C37.0664 8.2473 36.7475 7.47729 36.1683 6.89811ZM35.0982 9.46004H34.9503L35.0549 9.56465C35.2086 9.71838 35.2086 9.96758 35.0549 10.1213C34.978 10.1982 34.8773 10.2366 34.7766 10.2366C34.6759 10.2366 34.5751 10.1982 34.4983 10.1213L34.3937 10.0168V10.1646C34.3937 10.3617 34.2487 10.5245 34.0596 10.5533C34.0401 10.5563 34.0204 10.5582 34.0001 10.5582C33.8699 10.5582 33.7548 10.4947 33.6831 10.3973C33.6352 10.3321 33.6064 10.2518 33.6064 10.1646V10.0167L33.5018 10.1213C33.4402 10.1829 33.3632 10.2194 33.2832 10.2316C33.2634 10.2346 33.2435 10.2366 33.2235 10.2366C33.1228 10.2366 33.022 10.1981 32.9452 10.1213C32.9308 10.1069 32.9182 10.0915 32.9065 10.0756C32.7933 9.92154 32.8058 9.70395 32.9452 9.56459L33.0498 9.45998H32.9019C32.6845 9.45998 32.5082 9.28373 32.5082 9.06635C32.5082 8.84896 32.6844 8.67277 32.9018 8.67277H33.0497L32.9451 8.5682C32.7914 8.41449 32.7914 8.16525 32.9451 8.01152C33.0988 7.85781 33.3481 7.85781 33.5018 8.01152L33.6064 8.11615V7.96816C33.6064 7.75074 33.7827 7.57453 34 7.57453C34.2174 7.57453 34.3937 7.75074 34.3937 7.96816V8.11609L34.4982 8.01152C34.6519 7.85781 34.9012 7.85779 35.0549 8.01152C35.2087 8.16525 35.2087 8.41447 35.0549 8.56822L34.9504 8.67277H35.0982C35.3156 8.67277 35.4919 8.84902 35.4919 9.06641C35.4919 9.28379 35.3156 9.46004 35.0982 9.46004Z" fill="white"/>
</g>
<path fill-rule="evenodd" clip-rule="evenodd" d="M15.75 7.25C15.5739 9.64834 14.9489 11.3844 13.875 12.4583C13.6846 12.6488 13.476 12.8229 13.2494 12.9806L13.2494 13.9147L11.9994 15.1647L11.2366 13.8299L9.17171 11.7648L7.83334 11L9.08334 9.75L10.0224 9.75001C10.1787 9.52319 10.3518 9.31485 10.5417 9.125C11.6156 8.05111 13.3517 7.42611 15.75 7.25ZM10.496 13.6896L11.0853 14.2789L10.2014 15.1627L9.61215 14.5735L10.496 13.6896ZM9.61215 12.8057L10.2014 13.395L8.72826 14.8681L8.13901 14.2789L9.61215 12.8057ZM8.72826 11.9218L9.31752 12.5111L8.43363 13.395L7.84438 12.8057L8.72826 11.9218ZM12.625 9.75C12.2798 9.75 12 10.0298 12 10.375C12 10.7202 12.2798 11 12.625 11C12.9702 11 13.25 10.7202 13.25 10.375C13.25 10.0298 12.9702 9.75 12.625 9.75Z" fill="white"/>
<defs>
<linearGradient id="paint0_linear_147_120" x1="35.9211" y1="3.19566" x2="3.63497" y2="16.4381" gradientUnits="userSpaceOnUse">
<stop stop-color="#9D0000"/>
<stop offset="1" stop-color="#DF3939"/>
</linearGradient>
<linearGradient id="paint1_linear_147_120" x1="11.5" y1="2" x2="11.5" y2="19" gradientUnits="userSpaceOnUse">
<stop stop-color="white" stop-opacity="0.59"/>
<stop offset="1" stop-color="white" stop-opacity="0.03"/>
</linearGradient>
<linearGradient id="paint2_linear_147_120" x1="33.5" y1="2" x2="33.5" y2="19" gradientUnits="userSpaceOnUse">
<stop stop-color="white" stop-opacity="0.59"/>
<stop offset="1" stop-color="white" stop-opacity="0.03"/>
</linearGradient>
<clipPath id="clip0_147_120">
<rect width="10" height="10" fill="white" transform="translate(29 6)"/>
</clipPath>
</defs>
</svg>
